<svg width="72" height="73" xmlns="http://www.w3.org/2000/svg" xmlns:xlink="http://www.w3.org/1999/xlink" overflow="hidden"><defs><clipPath id="clip0"><rect x="415" y="400" width="72" height="73"/></clipPath></defs><g clip-path="url(#clip0)" transform="translate(-415 -400)"><path d="M19.5 44.73C21.9853 44.73 24 46.7447 24 49.23 24 51.7153 21.9853 53.73 19.5 53.73 17.0147 53.73 15 51.7153 15 49.23 15.0029 46.7459 17.0159 44.7329 19.5 44.73M19.5 43.23C16.1863 43.23 13.5 45.9163 13.5 49.23 13.5 52.5437 16.1863 55.23 19.5 55.23 22.8137 55.23 25.5 52.5437 25.5 49.23 25.5 45.9163 22.8137 43.23 19.5 43.23Z" fill="#FFFFFF" transform="matrix(1 0 0 1.01389 415 400)"/><path d="M55.875 39.6C58.3603 39.6 60.375 41.6147 60.375 44.1 60.375 46.5853 58.3603 48.6 55.875 48.6 53.3897 48.6 51.375 46.5853 51.375 44.1 51.3779 41.6159 53.3909 39.6029 55.875 39.6M55.875 38.1C52.5613 38.1 49.875 40.7863 49.875 44.1 49.875 47.4137 52.5613 50.1 55.875 50.1 59.1887 50.1 61.875 47.4137 61.875 44.1 61.875 40.7863 59.1887 38.1 55.875 38.1Z" fill="#FFFFFF" transform="matrix(1 0 0 1.01389 415 400)"/><path d="M33.5625 10.9575C36.0478 10.9575 38.0625 12.9722 38.0625 15.4575 38.0625 17.9428 36.0478 19.9575 33.5625 19.9575 31.0772 19.9575 29.0625 17.9428 29.0625 15.4575 29.0654 12.9734 31.0784 10.9604 33.5625 10.9575M33.5625 9.4575C30.2488 9.4575 27.5625 12.1438 27.5625 15.4575 27.5625 18.7712 30.2488 21.4575 33.5625 21.4575 36.8762 21.4575 39.5625 18.7712 39.5625 15.4575 39.5625 12.1438 36.8762 9.4575 33.5625 9.4575Z" fill="#FFFFFF" transform="matrix(1 0 0 1.01389 415 400)"/><path d="M61.4873 26.277C61.1308 26.066 60.6708 26.1838 60.4597 26.5403 60.4597 26.5403 60.4597 26.5403 60.4597 26.5403L57.5723 31.4153C57.567 31.4235 57.561 31.4227 57.5588 31.4153 55.8341 23.8349 50.2187 17.7379 42.8055 15.3967 42.6022 15.3337 42.3968 15.273 42.1905 15.216 41.7942 15.0955 41.3753 15.3191 41.2548 15.7154 41.1343 16.1117 41.3579 16.5307 41.7542 16.6511 41.7653 16.6545 41.7765 16.6576 41.7878 16.6605 41.9798 16.714 42.1702 16.7702 42.3592 16.8293 49.3724 19.0444 54.647 24.868 56.1592 32.0655 56.1592 32.0745 56.1592 32.0783 56.148 32.0737L50.9153 28.9748C50.5554 28.7697 50.0974 28.8952 49.8923 29.255 49.6922 29.6062 49.8063 30.0527 50.1502 30.2648L56.7952 34.2C56.9662 34.3014 57.1704 34.3308 57.363 34.2817 57.5558 34.2325 57.7213 34.1087 57.8228 33.9375L61.7497 27.3045C61.961 26.9482 61.8434 26.4883 61.4873 26.277Z" fill="#FFFFFF" transform="matrix(1 0 0 1.01389 415 400)"/><path d="M51.594 50.673C51.3044 50.3768 50.8296 50.3715 50.5334 50.6611 50.5332 50.6613 50.533 50.6615 50.5327 50.6618 50.3902 50.8005 50.247 50.9378 50.1008 51.0728 44.6755 56.038 36.9952 57.6938 30.006 55.4048 29.997 55.4048 29.9963 55.3958 30.006 55.3913L35.307 52.4085C35.668 52.2053 35.7959 51.748 35.5928 51.387 35.3896 51.026 34.9322 50.8981 34.5713 51.1012L27.8407 54.8887C27.4796 55.0915 27.3512 55.5488 27.5541 55.91 27.5541 55.91 27.5542 55.9102 27.5542 55.9102L31.3342 62.6273C31.5374 62.9884 31.9949 63.1166 32.3561 62.9134 32.7173 62.7102 32.8454 62.2527 32.6423 61.8915L29.8673 56.955C29.8628 56.946 29.8673 56.9415 29.8755 56.9445 31.9588 57.5952 34.1287 57.9262 36.3112 57.9263 41.7951 57.933 47.0815 55.8803 51.1237 52.1745 51.2805 52.0305 51.4342 51.8828 51.5872 51.7335 51.8819 51.4425 51.8849 50.9678 51.594 50.673Z" fill="#FFFFFF" transform="matrix(1 0 0 1.01389 415 400)"/><path d="M24.216 18.885C24.0776 18.7437 23.8889 18.6628 23.691 18.66L15.9833 18.5745 15.975 18.5745C15.5608 18.5723 15.2231 18.9062 15.2209 19.3204 15.2186 19.7346 15.5525 20.0723 15.9667 20.0745L21.6337 20.1375C21.6435 20.1375 21.6458 20.1435 21.6383 20.1502 15.9362 25.4337 13.4641 33.345 15.1432 40.935 15.1898 41.1435 15.2398 41.3515 15.2933 41.559 15.3787 41.8898 15.6769 42.121 16.0185 42.1215 16.082 42.1216 16.1453 42.1136 16.2067 42.0975 16.6076 41.9939 16.8487 41.585 16.7453 41.184 16.6952 40.992 16.6487 40.7992 16.6058 40.6058 15.0178 33.4247 17.4237 25.9453 22.9005 21.0368 22.908 21.0308 22.914 21.0368 22.9132 21.0427L22.8465 27.1245C22.8419 27.5387 23.174 27.8782 23.5882 27.8827 23.5882 27.8827 23.5882 27.8827 23.5882 27.8827L23.5965 27.8827C24.0075 27.8827 24.342 27.552 24.3465 27.141L24.432 19.416C24.4331 19.2174 24.3555 19.0265 24.216 18.885Z" fill="#FFFFFF" transform="matrix(1 0 0 1.01389 415 400)"/></g></svg>