<svg width="51" height="51" xmlns="http://www.w3.org/2000/svg" xmlns:xlink="http://www.w3.org/1999/xlink" overflow="hidden"><defs><clipPath id="clip0"><rect x="669" y="520" width="51" height="51"/></clipPath></defs><g clip-path="url(#clip0)" transform="translate(-669 -520)"><path d="M706.188 548.688 701.508 548.688C702.391 547.164 701.871 545.214 700.348 544.332 698.824 543.449 696.874 543.969 695.992 545.492 695.419 546.481 695.419 547.699 695.992 548.688L691.312 548.688 691.312 543.55C691.312 543.256 691.075 543.019 690.781 543.019 690.614 543.019 690.457 543.097 690.356 543.231 689.555 544.3 688.038 544.517 686.969 543.715 685.899 542.914 685.682 541.397 686.484 540.328 687.286 539.258 688.803 539.042 689.872 539.843 690.055 539.981 690.219 540.144 690.356 540.328 690.532 540.562 690.865 540.61 691.1 540.434 691.234 540.334 691.312 540.176 691.312 540.009L691.312 534.344C691.312 534.05 691.075 533.812 690.781 533.812L675.375 533.812C675.082 533.812 674.844 534.05 674.844 534.344L674.844 564.094C674.844 564.387 675.082 564.625 675.375 564.625L706.169 564.625C706.462 564.625 706.7 564.387 706.7 564.094L706.719 549.219C706.719 548.925 706.481 548.688 706.188 548.688ZM675.906 534.875 690.25 534.875 690.25 538.82C688.615 537.807 686.469 538.312 685.456 539.947 684.443 541.582 684.948 543.729 686.583 544.741 687.707 545.437 689.127 545.437 690.25 544.741L690.25 548.688 684.768 548.688C684.475 548.688 684.237 548.925 684.237 549.219 684.237 549.386 684.315 549.543 684.449 549.644 685.064 550.086 685.428 550.798 685.427 551.556 685.427 552.906 684.333 554 682.983 554 681.633 554 680.539 552.906 680.539 551.556 680.538 550.798 680.902 550.086 681.517 549.644 681.752 549.468 681.8 549.135 681.624 548.9 681.523 548.766 681.366 548.688 681.199 548.688L675.906 548.688ZM690.25 563.562 675.906 563.562 675.906 549.75 679.997 549.75C679.657 550.291 679.477 550.917 679.478 551.556 679.478 553.493 681.048 555.062 682.984 555.062 684.921 555.062 686.49 553.493 686.49 551.556 686.492 550.917 686.312 550.291 685.972 549.75L690.25 549.75 690.25 554.836C690.25 555.13 690.488 555.368 690.781 555.368 690.951 555.368 691.112 555.286 691.212 555.148 691.5 554.743 691.911 554.442 692.383 554.288 693.64 553.833 695.027 554.482 695.483 555.738 695.938 556.994 695.289 558.382 694.033 558.837 693.982 558.856 693.93 558.872 693.878 558.888L693.834 558.906C693.789 558.92 693.744 558.937 693.698 558.959L693.66 558.974C693.629 558.976 693.598 558.982 693.568 558.99 692.817 559.185 692.018 558.98 691.453 558.447 691.421 558.415 691.379 558.372 691.332 558.328 691.293 558.291 691.249 558.252 691.221 558.222 691.121 558.078 690.957 557.992 690.781 557.992 690.488 557.992 690.25 558.23 690.25 558.523L690.25 563.562ZM705.638 563.562 691.312 563.562 691.312 559.663C692.058 560.102 692.946 560.234 693.788 560.03 693.898 560.016 694.005 559.986 694.106 559.94L694.239 559.887C696.064 559.283 697.055 557.313 696.451 555.488 695.847 553.662 693.877 552.672 692.052 553.276 691.794 553.361 691.548 553.476 691.317 553.618L691.317 549.75 697.156 549.75C697.45 549.75 697.688 549.512 697.688 549.219 697.688 549.052 697.609 548.894 697.475 548.794 696.536 548.09 696.346 546.758 697.05 545.819 697.754 544.88 699.086 544.69 700.025 545.394 700.964 546.098 701.154 547.43 700.45 548.369 700.329 548.53 700.186 548.673 700.025 548.794 699.79 548.97 699.743 549.303 699.919 549.537 700.019 549.671 700.177 549.75 700.344 549.75L705.656 549.75Z" fill="#FFFFFF"/><path d="M714.32 531.485C714.266 531.355 714.162 531.252 714.032 531.198L701.153 525.886C700.882 525.774 700.572 525.903 700.46 526.174 700.46 526.174 700.46 526.175 700.46 526.175L698.861 530.06C697.781 528.677 695.785 528.432 694.402 529.511 693.019 530.591 692.773 532.588 693.853 533.971 694.218 534.438 694.706 534.794 695.262 534.998 695.747 535.178 696.27 535.228 696.779 535.142L695.154 538.993C695.04 539.264 695.167 539.575 695.437 539.689 695.439 539.69 695.441 539.691 695.443 539.691L700.075 541.58C700.347 541.691 700.657 541.56 700.768 541.289 700.83 541.135 700.818 540.962 700.734 540.819 700.376 540.21 700.356 539.46 700.681 538.832 701.181 537.593 702.592 536.994 703.831 537.495 705.07 537.996 705.668 539.406 705.168 540.645 705.161 540.663 705.154 540.68 705.146 540.697 704.944 541.378 704.411 541.91 703.729 542.111 703.444 542.18 703.27 542.468 703.339 542.753 703.38 542.919 703.499 543.056 703.658 543.12L708.318 545.022C708.589 545.134 708.9 545.005 709.012 544.734 709.013 544.734 709.013 544.734 709.013 544.734L714.32 531.89C714.374 531.76 714.373 531.615 714.32 531.485ZM708.233 543.84 705.118 542.565C705.566 542.166 705.912 541.665 706.127 541.104 706.819 539.31 705.925 537.294 704.131 536.602 702.336 535.909 700.32 536.803 699.628 538.598 699.436 539.095 699.361 539.629 699.408 540.159L696.343 538.909 698.246 534.398C698.36 534.128 698.233 533.817 697.962 533.703 697.8 533.635 697.616 533.651 697.468 533.746 696.932 534.121 696.249 534.215 695.631 534 694.53 533.593 693.967 532.371 694.373 531.27 694.78 530.169 696.002 529.605 697.103 530.012 697.74 530.269 698.223 530.805 698.413 531.465 698.497 531.746 698.793 531.906 699.074 531.822 699.227 531.776 699.352 531.663 699.413 531.515L701.242 527.069 713.137 531.978Z" fill="#FFFFFF"/></g></svg>