<svg width="50" height="50" xmlns="http://www.w3.org/2000/svg" xmlns:xlink="http://www.w3.org/1999/xlink" overflow="hidden"><defs><clipPath id="clip0"><rect x="526" y="521" width="50" height="50"/></clipPath></defs><g clip-path="url(#clip0)" transform="translate(-526 -521)"><path d="M550.531 541.208C549.073 541.208 547.927 542.354 547.927 543.812 547.927 545.271 549.073 546.417 550.531 546.417 551.99 546.417 553.135 545.271 553.135 543.812 553.135 543.812 553.135 543.812 553.135 543.812 553.135 542.354 551.99 541.208 550.531 541.208ZM550.531 545.375C549.646 545.375 548.969 544.698 548.969 543.812 548.969 542.927 549.646 542.25 550.531 542.25 551.417 542.25 552.094 542.927 552.094 543.812 552.094 544.698 551.417 545.375 550.531 545.375 550.531 545.375 550.531 545.375 550.531 545.375L550.531 545.375Z" fill="#FFFFFF"/><path d="M555.375 541.365 555.844 539.958 554.385 538.5 552.979 538.969C552.719 538.865 552.458 538.76 552.198 538.656L551.521 537.354 549.49 537.354 548.812 538.656C548.552 538.76 548.292 538.865 548.031 538.969L546.625 538.5 545.167 539.958 545.635 541.365C545.479 541.625 545.375 541.885 545.323 542.146L544.021 542.823 544.021 544.854 545.323 545.531C545.427 545.792 545.531 546.052 545.635 546.312L545.167 547.719 546.677 549.177 548.083 548.708C548.344 548.812 548.604 548.917 548.865 549.021L549.542 550.323 551.573 550.323 552.25 549.021C552.51 548.917 552.771 548.812 552.979 548.708L554.385 549.177 555.844 547.719 555.375 546.312C555.479 546.052 555.635 545.792 555.688 545.531L556.99 544.854 556.99 542.823 555.688 542.146C555.635 541.885 555.531 541.625 555.375 541.365ZM555.948 544.177 554.802 544.75 554.75 544.958C554.646 545.323 554.49 545.635 554.333 545.948L554.229 546.156 554.646 547.406 554.125 547.927 552.927 547.51 552.719 547.615C552.406 547.771 552.094 547.927 551.781 547.979L551.521 548.083 550.948 549.229 550.167 549.229 549.594 548.083 549.385 548.031C549.073 547.927 548.708 547.823 548.448 547.615L548.24 547.51 546.99 547.927 546.417 547.354 546.833 546.156 546.729 545.948C546.573 545.635 546.417 545.323 546.312 545.01L546.26 544.802 545.115 544.229 545.115 543.5 546.26 542.927 546.312 542.719C546.417 542.406 546.521 542.042 546.729 541.781L546.833 541.573 546.417 540.271 546.938 539.698 548.188 540.115 548.396 540.01C548.708 539.854 549.021 539.698 549.385 539.594L549.594 539.542 550.167 538.396 550.896 538.396 551.469 539.542 551.677 539.594C551.99 539.698 552.354 539.802 552.615 540.01L552.823 540.115 554.073 539.698 554.594 540.219 554.177 541.469 554.281 541.677C554.438 541.99 554.594 542.302 554.698 542.615L554.75 542.823 555.896 543.396 555.948 544.177Z" fill="#FFFFFF"/><path d="M563.552 544.177 563.552 543.708C563.552 536.521 557.719 530.688 550.531 530.688 543.344 530.688 537.51 536.521 537.51 543.708L537.51 544.177C537.562 545.74 537.875 547.25 538.396 548.708 538.917 550.062 539.698 551.312 540.635 552.406 541.833 553.708 543.135 556.208 543.708 557.354 543.865 557.667 544.229 557.927 544.594 557.927L556.417 557.927C556.781 557.927 557.146 557.719 557.302 557.354 557.875 556.208 559.177 553.708 560.323 552.406 561.312 551.312 562.042 550.062 562.562 548.708 563.188 547.25 563.5 545.688 563.552 544.177ZM562.51 544.177C562.458 545.583 562.198 546.99 561.677 548.344 561.208 549.594 560.479 550.74 559.594 551.729 558.344 553.083 557.042 555.531 556.417 556.885L544.646 556.885C543.969 555.531 542.667 553.083 541.469 551.729 540.583 550.74 539.906 549.594 539.385 548.344 538.865 547.042 538.604 545.635 538.552 544.177L538.552 543.76C538.552 537.146 543.917 531.781 550.531 531.781 557.146 531.781 562.51 537.146 562.51 543.76L562.51 543.76 562.51 544.177Z" fill="#FFFFFF"/><path d="M556.312 561.052 544.854 561.052C544.542 561.052 544.333 561.26 544.333 561.573 544.333 561.885 544.542 562.094 544.854 562.094L556.312 562.094C556.625 562.094 556.833 561.885 556.833 561.573 556.833 561.26 556.625 561.052 556.312 561.052Z" fill="#FFFFFF"/><path d="M550.688 528.812C551 528.812 551.208 528.604 551.208 528.292L551.208 523.604C551.208 523.292 551 523.083 550.688 523.083 550.375 523.083 550.167 523.292 550.167 523.604L550.167 528.292C550.167 528.604 550.375 528.812 550.688 528.812Z" fill="#FFFFFF"/><path d="M534.906 543.396 530.219 543.396C529.906 543.396 529.698 543.604 529.698 543.917 529.698 544.229 529.906 544.438 530.219 544.438L534.906 544.438C535.219 544.438 535.427 544.229 535.427 543.917 535.427 543.604 535.167 543.396 534.906 543.396Z" fill="#FFFFFF"/><path d="M570.844 543.396 566.156 543.396C565.844 543.396 565.635 543.604 565.635 543.917 565.635 544.229 565.844 544.438 566.156 544.438L570.844 544.438C571.156 544.438 571.365 544.229 571.365 543.917 571.365 543.604 571.104 543.396 570.844 543.396Z" fill="#FFFFFF"/><path d="M539.125 533.24C539.333 533.448 539.646 533.448 539.854 533.24 540.062 533.031 540.062 532.719 539.854 532.51L536.521 529.177C536.312 528.969 536 528.969 535.792 529.125 535.583 529.333 535.583 529.646 535.74 529.854 535.74 529.854 535.74 529.854 535.792 529.906L539.125 533.24Z" fill="#FFFFFF"/><path d="M561.938 554.594C561.729 554.385 561.417 554.385 561.208 554.594 561 554.802 561 555.115 561.208 555.323 561.208 555.323 561.208 555.323 561.208 555.323L564.542 558.656C564.75 558.865 565.062 558.865 565.271 558.656 565.479 558.448 565.479 558.135 565.271 557.927L561.938 554.594Z" fill="#FFFFFF"/><path d="M564.438 529.229 561.208 532.458C561 532.667 561 532.979 561.156 533.188 561.365 533.396 561.677 533.396 561.885 533.24 561.885 533.24 561.885 533.24 561.938 533.188L565.271 529.854C565.479 529.646 565.479 529.333 565.271 529.125 565.062 528.917 564.75 528.917 564.542 529.125L564.438 529.229Z" fill="#FFFFFF"/><path d="M539.125 554.594 535.792 557.927C535.583 558.135 535.583 558.448 535.792 558.656 536 558.865 536.312 558.865 536.521 558.656 536.521 558.656 536.521 558.656 536.521 558.656L539.854 555.323C540.062 555.115 540.062 554.802 539.854 554.594 539.646 554.385 539.333 554.385 539.125 554.594L539.125 554.594Z" fill="#FFFFFF"/><path d="M550.531 568.396C548.969 568.396 547.667 567.198 547.51 565.635 547.51 565.323 547.719 565.115 547.979 565.062 547.979 565.062 548.031 565.062 548.031 565.062L553.031 565.062C553.344 565.062 553.552 565.271 553.552 565.583 553.552 565.583 553.552 565.635 553.552 565.635 553.396 567.198 552.094 568.396 550.531 568.396ZM548.708 566.104C549.125 567.094 550.271 567.615 551.26 567.25 551.781 567.042 552.198 566.625 552.406 566.104L548.708 566.104Z" fill="#FFFFFF"/></g></svg>