<svg width="47" height="46" xmlns="http://www.w3.org/2000/svg" xmlns:xlink="http://www.w3.org/1999/xlink" overflow="hidden"><defs><clipPath id="clip0"><rect x="653" y="169" width="47" height="46"/></clipPath></defs><g clip-path="url(#clip0)" transform="translate(-653 -169)"><path d="M36.4421 35.4535 39.2917 38.3252C39.2935 38.3271 39.2935 38.3301 39.2916 38.3319 39.2907 38.3328 39.2896 38.3333 39.2883 38.3333L7.68727 38.3333 7.68727 6.71935C7.68732 6.71672 7.68947 6.71461 7.69211 6.71461 7.69336 6.71466 7.69455 6.71514 7.69542 6.716L10.5627 9.58333 11.2403 8.90579 7.20331 4.86833 3.17112 8.90052 3.84867 9.57854 6.72031 6.70833C6.72252 6.70646 6.72587 6.70675 6.72774 6.70896 6.72841 6.70972 6.72879 6.71068 6.72894 6.71169L6.72894 39.2917 39.2864 39.2917C39.289 39.2917 39.2911 39.2939 39.2911 39.2965 39.2911 39.2978 39.2906 39.2989 39.2897 39.2998L36.4377 42.1667 37.1153 42.8442 41.1518 38.8072 37.1196 34.775Z" fill="#FFFFFF" transform="matrix(1.02174 0 0 1 653 169)"/><path d="M11.5364 33.5417C13.2408 33.4846 17.8533 31.9949 22.5735 28.4702 25.7576 30.9416 29.5037 32.5867 33.4779 33.259L33.6461 32.316C29.9106 31.6807 26.3844 30.1507 23.3685 27.8568 28.0575 24.1693 31.5869 19.2108 33.5359 13.5729L32.6312 13.2605C30.7206 18.7991 27.2431 23.664 22.621 27.2646 17.6276 23.1303 14.79 17.4086 12.9236 12.7588L12.0338 13.1162C13.9275 17.8327 16.7938 23.6248 21.8284 27.8669 17.389 31.1401 13.1047 32.5301 11.5043 32.5833Z" fill="#FFFFFF" transform="matrix(1.02174 0 0 1 653 169)"/></g></svg>