<svg width="50" height="49" xmlns="http://www.w3.org/2000/svg" xmlns:xlink="http://www.w3.org/1999/xlink" overflow="hidden"><defs><clipPath id="clip0"><rect x="776" y="422" width="50" height="49"/></clipPath></defs><g clip-path="url(#clip0)" transform="translate(-776 -422)"><path d="M8.18147 7.65625 7.16064 7.65625 7.16064 42.3646 41.8542 42.3646 41.8542 41.3438 8.18147 41.3438 8.18147 7.65625Z" fill="#FFFFFF" transform="matrix(1.02041 0 0 1 776 422)"/><path d="M14.8174 36.75C15.9416 36.7522 16.8548 35.8427 16.857 34.7185 16.8583 34.0762 16.5563 33.471 16.0424 33.0857L20.4728 19.3918C20.767 19.3848 21.0561 19.3139 21.3201 19.184L29.1448 25.1462C28.9348 26.254 29.6627 27.3223 30.7705 27.5324 31.8783 27.7424 32.9467 27.0145 33.1567 25.9067 33.1808 25.7795 33.1928 25.6503 33.1924 25.5208 33.1909 24.9005 32.9056 24.315 32.4181 23.9314L36.113 13.2565C36.161 13.2601 36.2064 13.2708 36.2549 13.2708 37.3864 13.2748 38.3069 12.3607 38.3109 11.2292 38.3148 10.0977 37.4007 9.17719 36.2692 9.17321 35.1377 9.16928 34.2172 10.0834 34.2132 11.2149 34.2108 11.9097 34.5607 12.5584 35.1427 12.938L31.4825 23.5123C31.373 23.4924 31.2621 23.4814 31.1507 23.4792 30.5515 23.4808 29.9836 23.7474 29.5996 24.2075L22.1164 18.5062C22.7597 17.5777 22.5286 16.3035 21.6001 15.6602 20.6716 15.0169 19.3975 15.248 18.7541 16.1765 18.1108 17.1049 18.3419 18.3791 19.2704 19.0225 19.3376 19.0691 19.4077 19.1116 19.4801 19.1498L15.0976 32.6947C13.9833 32.5378 12.9527 33.314 12.7958 34.4283 12.6389 35.5427 13.4151 36.5732 14.5294 36.7301 14.6248 36.7435 14.7211 36.7502 14.8174 36.75Z" fill="#FFFFFF" transform="matrix(1.02041 0 0 1 776 422)"/></g></svg>