<svg width="46" height="46" xmlns="http://www.w3.org/2000/svg" xmlns:xlink="http://www.w3.org/1999/xlink" overflow="hidden"><defs><clipPath id="clip0"><rect x="524" y="172" width="46" height="46"/></clipPath></defs><g clip-path="url(#clip0)" transform="translate(-524 -172)"><path d="M537.417 183.979 548.438 183.979 548.438 184.938 537.417 184.938Z" fill="#FFFFFF"/><path d="M537.417 191.167 548.438 191.167 548.438 192.125 537.417 192.125Z" fill="#FFFFFF"/><path d="M537.417 198.354 548.438 198.354 548.438 199.312 537.417 199.312Z" fill="#FFFFFF"/><path d="M537.417 205.542 548.438 205.542 548.438 206.5 537.417 206.5Z" fill="#FFFFFF"/><path d="M561.375 175.833 532.625 175.833 532.625 214.167 561.375 214.167ZM560.417 213.208 533.583 213.208 533.583 176.792 560.417 176.792Z" fill="#FFFFFF"/><path d="M556.583 182.302 552.271 182.302 552.271 186.615 556.583 186.615ZM555.625 185.656 553.229 185.656 553.229 183.26 555.625 183.26Z" fill="#FFFFFF"/><path d="M556.583 189.49 552.271 189.49 552.271 193.802 556.583 193.802ZM555.625 192.844 553.229 192.844 553.229 190.448 555.625 190.448Z" fill="#FFFFFF"/><path d="M556.583 196.677 552.271 196.677 552.271 200.99 556.583 200.99ZM555.625 200.031 553.229 200.031 553.229 197.635 555.625 197.635Z" fill="#FFFFFF"/><path d="M556.583 203.865 552.271 203.865 552.271 208.177 556.583 208.177ZM555.625 207.219 553.229 207.219 553.229 204.823 555.625 204.823Z" fill="#FFFFFF"/></g></svg>