<svg width="62" height="63" xmlns="http://www.w3.org/2000/svg" xmlns:xlink="http://www.w3.org/1999/xlink" overflow="hidden"><defs><clipPath id="clip0"><rect x="416" y="269" width="62" height="63"/></clipPath></defs><g clip-path="url(#clip0)" transform="translate(-416 -269)"><path d="M25.8611 6.46996C28.9596 6.67921 31.419 9.15973 31.6019 12.2599 31.6801 13.7106 31.2376 15.1416 30.3542 16.295L30.3542 18.177C33.4456 15.481 33.7662 10.7894 31.0701 7.69795 28.3742 4.6065 23.6825 4.28594 20.5911 6.98191 17.4997 9.67794 17.1791 14.3696 19.8751 17.461 20.0972 17.7157 20.3365 17.9549 20.5911 18.177L20.5911 16.295C18.5406 13.6045 19.0594 9.76119 21.7499 7.71067 22.925 6.81509 24.3841 6.37447 25.8585 6.46996Z" fill="#FFFFFF" transform="matrix(1 0 0 1.01613 416 269)"/><path d="M20.5937 22.0552 20.5937 20.5698C16.1796 17.8745 14.7862 12.1112 17.4815 7.69711 20.1768 3.28305 25.9401 1.88968 30.3542 4.58496 34.7682 7.28022 36.1616 13.0435 33.4664 17.4576 32.6909 18.7276 31.6241 19.7944 30.3542 20.5698L30.3542 21.9758C30.442 21.9493 30.5356 21.937 30.6254 21.9151 35.7807 19.0717 37.6547 12.5874 34.8113 7.43212 31.9678 2.2769 25.4837 0.402806 20.3284 3.24625 15.1731 6.08969 13.2991 12.5739 16.1425 17.7292 17.1636 19.5804 18.7121 21.0862 20.5911 22.0552Z" fill="#FFFFFF" transform="matrix(1 0 0 1.01613 416 269)"/><path d="M43.7061 27.7295C43.0893 27.7292 42.4801 27.8664 41.923 28.1312 41.4633 25.8726 39.2597 24.4143 37.0011 24.874 36.5427 24.9673 36.1032 25.1371 35.701 25.3761 34.6904 23.3034 32.1908 22.4425 30.1181 23.4532 29.7304 23.6423 29.3743 23.8903 29.0625 24.1884L29.0625 12.6474C29.0625 10.6645 27.4551 9.05717 25.4723 9.05717 23.4895 9.05717 21.8821 10.6645 21.8821 12.6474L21.8821 34.4513C21.8821 34.4823 21.877 34.483 21.8699 34.4513L20.7345 29.3564C20.3248 27.4189 18.4219 26.1805 16.4845 26.5902 14.5471 26.9999 13.3086 28.9027 13.7183 30.8402 13.7236 30.8651 13.7291 30.8899 13.7349 30.9147L17.2638 46.7654C17.446 47.5863 17.9132 48.316 18.5826 48.825L24.8297 53.6203 24.8297 57.7272 26.1214 57.7272 26.1214 53.3039C26.1212 53.1031 26.0276 52.9138 25.8682 52.7917L19.3666 47.8007C18.9403 47.4759 18.6428 47.0104 18.527 46.4871L14.9975 30.6338C14.7227 29.397 15.5026 28.1716 16.7394 27.8968 17.9761 27.622 19.2016 28.4018 19.4764 29.6386L21.8944 40.4886C21.976 40.8402 22.3271 41.0592 22.6788 40.9776 22.6963 40.9735 22.7136 40.9688 22.7307 40.9633 23.0017 40.8698 23.1817 40.6125 23.1764 40.3258L23.1764 12.6474C23.1764 11.3779 24.2054 10.3488 25.4749 10.3488 26.7443 10.3488 27.7734 11.3779 27.7734 12.6474L27.7734 27.1786C27.7679 27.4925 27.9837 27.7672 28.2901 27.8361 28.6395 27.9074 28.9807 27.6819 29.052 27.3324 29.0608 27.2897 29.0651 27.2462 29.0651 27.2025 29.0664 25.611 30.3576 24.3218 31.9491 24.3231 33.2851 24.3242 34.4451 25.2434 34.7516 26.5437 34.7803 26.6848 34.8534 26.8129 34.9602 26.9093 35.2134 27.128 35.5913 27.1189 35.8334 26.888 36.979 25.7837 38.8029 25.8171 39.9072 26.9627 40.4239 27.4987 40.713 28.214 40.714 28.9585 40.7139 29.0364 40.7096 29.1142 40.7011 29.1917 40.6723 29.4164 40.7582 29.6405 40.9297 29.7884 41.177 29.9917 41.5358 29.9831 41.7731 29.7684 42.9504 28.6991 44.7717 28.7866 45.8411 29.9639 46.3223 30.4937 46.589 31.1839 46.5891 31.8996L46.5891 42.4681C46.5891 46.79 45.1192 48.6752 43.8217 50.3375 42.8246 51.6156 41.8842 52.8227 41.8842 54.7938L41.8842 57.7265 43.1759 57.7265 43.1759 54.7964C43.1759 53.267 43.9102 52.3248 44.8409 51.1326 46.1971 49.3959 47.8814 47.2343 47.8814 42.4681L47.8814 31.899C47.8775 29.5956 46.0096 27.7302 43.7061 27.7295Z" fill="#FFFFFF" transform="matrix(1 0 0 1.01613 416 269)"/></g></svg>