<svg width="54" height="54" xmlns="http://www.w3.org/2000/svg" xmlns:xlink="http://www.w3.org/1999/xlink" overflow="hidden"><defs><clipPath id="clip0"><rect x="777" y="279" width="54" height="54"/></clipPath></defs><g clip-path="url(#clip0)" transform="translate(-777 -279)"><path d="M781.5 317.812 800.062 317.812 800.062 316.688 781.5 316.688C781.189 316.688 780.938 316.436 780.938 316.125L780.938 294.75C780.938 294.439 781.189 294.188 781.5 294.188L798.938 294.188 798.938 293.062 781.5 293.062C780.568 293.062 779.812 293.818 779.812 294.75L779.812 316.125C779.812 317.057 780.568 317.812 781.5 317.812Z" fill="#FFFFFF"/><path d="M826.5 300.938 823.125 300.938 823.125 294.75C823.125 293.818 822.37 293.062 821.438 293.062L805.688 293.062 805.688 294.188 821.438 294.188C821.748 294.188 822 294.439 822 294.75L822 316.125C822 316.436 821.748 316.688 821.438 316.688L807.938 316.688 807.938 317.812 821.438 317.812C822.37 317.812 823.125 317.057 823.125 316.125L823.125 309.938 826.5 309.938C827.432 309.938 828.188 309.182 828.188 308.25L828.188 302.625C828.188 301.693 827.432 300.938 826.5 300.938ZM827.062 308.25C827.062 308.561 826.811 308.812 826.5 308.812L823.125 308.812 823.125 302.062 826.5 302.062C826.811 302.062 827.062 302.314 827.062 302.625Z" fill="#FFFFFF"/><path d="M794.719 309.938 802.312 309.938 802.312 324.491 810.478 305.438 803.438 305.438 803.438 289.142ZM808.774 306.562 803.438 319.009 803.438 308.812 796.406 308.812 802.312 294.733 802.312 306.562Z" fill="#FFFFFF"/></g></svg>